<svg xmlns="http://www.w3.org/2000/svg" width="309" height="210" fill="none" viewBox="0 0 309 210">
  <g>
    <circle cx="156.683" cy="42.396" r="34.5" fill="#E04370" transform="rotate(15.03 156.683 42.396)"/>
    <path stroke="#ffffffff" d="M121.324 39.115c11.917 19.248 46.534 30.303 67.606 18.152"/>
    <path fill="#E04370" d="M168.219 76.556c-12.085 4.52-29.246.948-38.148-10.243-4.279 15.936-22.463 120.29-22.463 120.29l23.662 6.353s32.152-98.533 36.949-116.4ZM124.121 192.59l-10.624-2.853c-.289 1.076.133 8.319.133 8.319l6.761 1.816s3.406-6.076 3.73-7.282Z"/>
    <g >
      <path fill="#E04370" d="M214.032 187c-2.44 0-4.89-.89-6.76-2.685-3.733-3.575-3.733-9.361 0-12.936L273.463 108l-66.191-63.383c-3.733-3.575-3.733-9.366 0-12.936 3.734-3.575 9.781-3.575 13.514 0l72.941 69.847c3.734 3.575 3.734 9.366 0 12.936l-72.941 69.851c-1.863 1.79-4.309 2.685-6.754 2.685Z"/>
    </g>
    <g >
      <path fill="#E04370" d="M89.642 29c2.352 0 4.713.89 6.514 2.684a9.101 9.101 0 0 1 0 12.937L32.372 108l63.784 63.383a9.101 9.101 0 0 1 0 12.936c-3.598 3.575-9.425 3.575-13.022 0l-70.289-69.847a9.1 9.1 0 0 1 0-12.936l70.289-69.85A9.19 9.19 0 0 1 89.642 29Z"/>
    </g>
  </g>
</svg>
